<svg xmlns="http://www.w3.org/2000/svg" viewBox="0 0 64 64" role="img" aria-label="Knowstellation">
  <defs>
    <radialGradient id="glow" cx="50%" cy="42%" r="62%">
      <stop offset="0%" stop-color="#22d3ee" stop-opacity="0.95" />
      <stop offset="48%" stop-color="#2563eb" stop-opacity="0.42" />
      <stop offset="100%" stop-color="#050813" stop-opacity="1" />
    </radialGradient>
    <linearGradient id="edge" x1="8" y1="8" x2="56" y2="56">
      <stop offset="0%" stop-color="#f8fafc" />
      <stop offset="100%" stop-color="#22d3ee" />
    </linearGradient>
  </defs>
  <rect width="64" height="64" rx="18" fill="#050813" />
  <circle cx="32" cy="32" r="27" fill="url(#glow)" opacity="0.92" />
  <path d="M18 42 C23 24 36 19 48 16" fill="none" stroke="url(#edge)" stroke-width="3.2" stroke-linecap="round" opacity="0.82" />
  <path d="M16 24 C29 29 37 39 50 43" fill="none" stroke="#91efff" stroke-width="2.6" stroke-linecap="round" opacity="0.62" />
  <path d="M25 50 C28 35 36 27 47 25" fill="none" stroke="#a78bfa" stroke-width="2.4" stroke-linecap="round" opacity="0.62" />
  <circle cx="18" cy="42" r="5.4" fill="#ecfeff" />
  <circle cx="18" cy="42" r="2.6" fill="#22d3ee" />
  <circle cx="48" cy="16" r="5.1" fill="#ecfeff" />
  <circle cx="48" cy="16" r="2.3" fill="#60a5fa" />
  <circle cx="50" cy="43" r="4.8" fill="#ecfeff" />
  <circle cx="50" cy="43" r="2.2" fill="#22d3ee" />
  <circle cx="25" cy="50" r="3.6" fill="#a78bfa" />
  <text x="32" y="40" text-anchor="middle" font-family="Georgia, 'Times New Roman', serif" font-size="25" font-weight="700" fill="#ffffff">K</text>
</svg>
